<?xml version="1.0" encoding="UTF-8" standalone="no"?>
<!-- Created with Inkscape (http://www.inkscape.org/) -->

<svg
   xmlns:dc="http://purl.org/dc/elements/1.1/"
   xmlns:cc="http://creativecommons.org/ns#"
   xmlns:rdf="http://www.w3.org/1999/02/22-rdf-syntax-ns#"
   xmlns:svg="http://www.w3.org/2000/svg"
   xmlns="http://www.w3.org/2000/svg"
   xmlns:sodipodi="http://sodipodi.sourceforge.net/DTD/sodipodi-0.dtd"
   xmlns:inkscape="http://www.inkscape.org/namespaces/inkscape"
   width="267.10843mm"
   height="209.0014mm"
   viewBox="0 0 267.10843 209.0014"
   version="1.1"
   id="svg8"
   inkscape:version="0.92.5 (2060ec1f9f, 2020-04-08)"
   sodipodi:docname="PageCatalogueVide.svg">
  <defs
     id="defs2">
    <linearGradient
       gradientUnits="userSpaceOnUse"
       y2="488.45001"
       x2="630.34998"
       y1="488.45001"
       x1="318.22"
       id="07c62293-c0d3-4921-8e06-4e39241449cd"
       gradientTransform="matrix(0.26458333,0,0,0.26458333,-358.32083,-117.639)">
      <stop
         id="stop1233"
         stop-opacity="0.25"
         stop-color="gray"
         offset="0" />
      <stop
         id="stop1235"
         stop-opacity="0.12"
         stop-color="gray"
         offset="0.54" />
      <stop
         id="stop1237"
         stop-opacity="0.1"
         stop-color="gray"
         offset="1" />
    </linearGradient>
  </defs>
  <sodipodi:namedview
     id="base"
     pagecolor="#ffffff"
     bordercolor="#666666"
     borderopacity="1.0"
     inkscape:pageopacity="0.0"
     inkscape:pageshadow="2"
     inkscape:zoom="0.35"
     inkscape:cx="504.77186"
     inkscape:cy="394.96331"
     inkscape:document-units="mm"
     inkscape:current-layer="layer1"
     showgrid="false"
     inkscape:window-width="1920"
     inkscape:window-height="1001"
     inkscape:window-x="-9"
     inkscape:window-y="-9"
     inkscape:window-maximized="1" />
  <metadata
     id="metadata5">
    <rdf:RDF>
      <cc:Work
         rdf:about="">
        <dc:format>image/svg+xml</dc:format>
        <dc:type
           rdf:resource="http://purl.org/dc/dcmitype/StillImage" />
        <dc:title></dc:title>
      </cc:Work>
    </rdf:RDF>
  </metadata>
  <g
     inkscape:label="Calque 1"
     inkscape:groupmode="layer"
     id="layer1"
     transform="translate(194.40839,-44.332633)">
    <g
       transform="translate(138.71726,147.41072)"
       id="g2365">
      <ellipse
         id="ellipse1244"
         ry="8.8264999"
         rx="46.593124"
         cy="93.048714"
         cx="-239.42766"
         style="opacity:0.1;fill:#38a4cd;stroke-width:0.26458332" />
      <path
         id="path1246"
         d="m -177.93321,-73.604396 c -17.12383,-0.592667 -33.43275,-6.122459 -49.00612,-12.170834 -15.57338,-6.048374 -30.99858,-12.747624 -47.71231,-15.95173 -10.75002,-2.0611 -23.04521,-2.35479 -31.70502,3.402543 -8.33702,5.55625 -11.03048,15.120937 -12.47775,24.003 -1.09009,6.683375 -1.73038,13.718645 1.25412,19.976041 2.07433,4.344458 5.75204,7.995708 8.29733,12.157604 8.85561,14.478 2.59557,32.3320831 -6.99822,46.4687705 -4.49792,6.6304585 -9.72344,12.9645835 -13.19742,20.0157285 -3.47398,7.051146 -5.08,15.157979 -2.03994,22.370521 3.01096,7.14375 10.18911,12.498916 17.96521,16.269229 15.79298,7.659687 34.39583,9.850437 52.54889,11.093979 40.17169,2.746375 80.55505,1.558396 120.83257,0.365125 14.90662,-0.439208 29.87675,-0.886354 44.539953,-3.190875 8.143875,-1.280583 16.549688,-3.312583 22.463125,-8.217958 7.503583,-6.225646 9.363604,-16.766646 4.333875,-24.571854 -8.434917,-13.096875 -31.750003,-16.348604 -37.652853,-30.4006247 -3.24379,-7.73641662 0.0873,-16.3512498 4.80483,-23.5241043 10.117669,-15.390812 27.074815,-28.892499 27.966461,-46.481999 0.613833,-12.080875 -7.537979,-24.180271 -20.142729,-29.897916 -13.210642,-5.992813 -31.533042,-5.23875 -41.275002,4.680479 -10.04094,10.202333 -27.67806,14.131395 -42.799,13.604875 z"
         inkscape:connector-curvature="0"
         style="opacity:0.1;fill:#38a4cd;stroke-width:0.26458332" />
      <path
         id="path1248"
         d="m -191.54073,-7.3686056 -8.10419,-5.4636454 v 0 l 4.08782,-6.085417 -21.40479,-1.706562 -7.69144,5.947833 -9.62819,-5.3975 -8.0301,0.965729 -0.0952,-2.116667 a 59.737624,59.737624 0 0 0 -0.66411,-6.588124 c 0.0344,-0.661459 0.0582,-1.420813 0.0556,-2.246313 0,-3.479271 -0.47096,-8.090958 -2.54,-11.165416 l 0.47625,-4.280959 -3.86292,-4.564062 a 29.202062,29.202062 0 0 1 2.11667,-3.561292 c 0.13229,-0.1905 0.26458,-0.375708 0.40745,-0.555625 5.01386,-0.362479 8.96938,-4.484687 8.96938,-9.525 0,-0.232833 0,-0.465666 -0.0265,-0.695854 0,-0.0926 -0.0185,-0.187854 -0.0291,-0.280458 0.48948,0.264583 0.98425,0.529166 1.47902,0.79375 0.0926,0.132291 0.19843,0.264583 0.31485,0.420687 v 0 l 0.0238,0.0291 0.14817,0.182563 0.0476,0.05556 c 0.0529,0.0635 0.10847,0.124355 0.16404,0.187855 l 0.037,0.04233 c 0.14023,0.156104 0.28839,0.314854 0.44714,0.470958 a 0.47624999,0.47624999 0 0 1 0.0529,0.05027 l 0.19844,0.185208 0.0556,0.05027 c 0.16933,0.150813 0.34925,0.296334 0.52917,0.433917 l 0.0582,0.04233 0.22754,0.156104 0.0741,0.04762 c 0.0873,0.05292 0.17727,0.10848 0.26458,0.15875 l 0.0317,0.01852 c 0.10319,0.05556 0.20903,0.108479 0.31486,0.15875 l 0.0529,0.02117 q 0.13493,0.05821 0.26458,0.111125 l 0.082,0.0291 c 0.0926,0.03175 0.18256,0.06085 0.27781,0.08731 l 0.0582,0.01588 c 0.11642,0.0291 0.23283,0.05292 0.3519,0.07144 h 0.0132 a 2.8786666,2.8786666 0 0 0 0.33866,0.0344 h 0.0767 a 2.9104166,2.9104166 0 0 0 0.30427,0 h 0.0661 a 3.1353125,3.1353125 0 0 0 0.37835,-0.04498 4.1751249,4.1751249 0 0 0 1.66688,-0.597959 1.4552083,1.4552083 0 0 0 0.33866,-0.314854 c 0.52917,-0.693208 -0.0529,-1.452562 -0.0529,-1.452562 v 0 c -0.20638,-0.492125 -1.54517,-0.838729 -1.54517,-0.838729 0,0 -4.23333,-1.767417 -4.23333,-3.175 0,-1.407584 -1.05834,-8.710084 -11.98298,-10.379604 0,0 -7.10671,-0.399521 -9.10431,3.405187 l -0.0423,0.4445 c -0.58737,0.367771 -1.07421,1.105958 -1.65364,1.322917 a 2.7013958,2.7013958 0 0 0 -0.71702,0.264583 v -0.05027 0 a 0.68262499,0.68262499 0 0 0 -0.1614,0.209021 2.1166666,2.1166666 0 0 0 -0.2196,0.79375 2.9897916,2.9897916 0 0 1 -0.34661,0.960438 2.1351875,2.1351875 0 0 1 -0.15875,0.243416 v 0 l -0.045,0.07144 a 1.9314583,1.9314583 0 0 0 0.89959,-0.145521 4.4793958,4.4793958 0 0 1 -0.26459,1.058333 0.87841666,0.87841666 0 0 0 0.81492,-0.486833 v -0.02117 l 0.0344,-0.04762 a 2.2330833,2.2330833 0 0 0 0.16405,-0.383646 l -0.0291,0.03175 c 0.0529,-0.171979 0.10054,-0.346604 0.15875,-0.515937 a 0.80962499,0.80962499 0 0 1 0.12965,-0.264583 0.64029166,0.64029166 0 0 1 0.54769,-0.182563 l -0.10848,2.293938 h 0.0476 a 3.1300208,3.1300208 0 0 1 -0.23283,0.481541 c -0.37571,0.608542 -1.05834,1.023938 -1.30969,1.690688 a 2.4870833,2.4870833 0 0 0 -0.12171,1.000125 c 0,0.198437 0.0238,0.399521 0.0397,0.597958 v -0.01588 c 0.037,0.529167 0.0476,1.031875 -0.23813,1.457854 -0.19579,0.291042 -0.51064,0.510646 -0.61912,0.841375 a 0.82020832,0.82020832 0 0 0 -0.0397,0.28575 3.2093958,3.2093958 0 0 0 0.17992,0.849313 0.03704167,0.03704167 0 0 0 0,-0.01588 1.2911667,1.2911667 0 0 1 0.045,0.624416 c -0.11906,0.529167 -0.762,0.971021 -0.73025,1.476375 a 0.56885416,0.56885416 0 0 0 0.0291,0.195792 1.0715625,1.0715625 0 0 0 0.59796,0.529167 2.3283333,2.3283333 0 0 0 1.34408,0.296333 1.7674166,1.7674166 0 0 0 0.50271,-0.171979 c -0.18521,0.425979 -0.37571,0.846666 -0.56885,1.246187 -0.0291,0.0635 -0.0609,0.127 -0.0926,0.1905 0,0 -1.63512,-1.092729 -2.56381,1.135063 a 4.9424166,4.9424166 0 0 0 -0.57414,1.49225 3.5507083,3.5507083 0 0 1 -0.1958,0.613833 3.9502291,3.9502291 0 0 1 -1.76741,1.5875 c -1.89442,0.867833 -9.54617,10.411354 -9.68111,12.882562 a 14.417146,14.417146 0 0 1 -0.48683,2.852209 16.973021,16.973021 0 0 0 -0.45508,6.744229 12.903729,12.903729 0 0 0 0.46831,2.151062 c 0.81227,2.468563 1.35467,7.074958 1.35467,7.074958 l 0.87841,7.995709 a 22.754166,22.754166 0 0 0 0.14288,3.3046455 c -0.89694,1.0239375 -4.49792,5.2916666 -3.12209,6.4531874 1.05834,0.9154583 2.91042,0.7646458 3.95023,0.5767916 -0.87577,2.16693752 -2.25425,5.9346041 -2.43681,8.5222291 -0.26458,3.8285204 0.45244,8.9005834 1.5875,10.8479164 1.13506,1.947333 4.9186,6.942667 4.9186,6.942667 0,0 -0.17727,6.852708 1.17475,9.342437 1.35203,2.489729 1.89707,7.654396 1.89707,7.654396 0,0 1.26206,4.360333 0.62971,5.963708 -0.63236,1.603375 1.1721,2.936875 -0.72232,4.003146 -1.89441,1.066271 -4.318,25.098375 -4.318,25.098375 0,0 -0.97631,15.750645 0,16.552333 a 0.99218749,0.99218749 0 0 0 0.16669,0.0979 v 5.291666 c 0,0 -0.67733,1.11125 2.07698,1.336146 1.88648,0.150812 7.23371,0.492125 10.40606,0.690565 l 2.45798,0.15346 c 0,0 5.82083,1.15887 8.39258,0 2.57175,-1.158879 7.13053,-1.132421 6.45319,-4.19365 a 8.7100832,8.7100832 0 0 0 -0.35983,-1.225021 c -0.74348,-1.899708 -2.00554,-2.116666 -4.33123,-2.645833 -0.13494,-0.0291 -0.26458,-0.05556 -0.38365,-0.07673 -2.45004,-0.425979 -3.25437,0.714375 -4.62756,-0.769938 -1.19327,-1.283229 -4.99269,-2.719916 -6.2865,-3.175 0.0317,-0.09525 0.0714,-0.187854 0.10319,-0.28575 a 1.93675,1.93675 0 0 1 -0.98161,-0.478896 l 3.50573,0.22225 2.08757,0.129646 c 0,0 4.9477,0.986896 7.14375,0 2.19604,-0.986896 6.05895,-0.960437 5.48216,-3.561291 a 7.4638957,7.4638957 0 0 0 -0.30427,-1.042459 c -0.63235,-1.613958 -1.70656,-1.791229 -3.683,-2.238375 -0.11377,-0.02381 -0.2196,-0.04762 -0.32544,-0.06615 -2.08227,-0.362479 -2.76489,0.605896 -3.9317,-0.65352 -1.00013,-1.074209 -4.15661,-2.278063 -5.29167,-2.688167 0,-0.587375 -0.79375,-1.423458 -1.29381,-2.262187 -0.58738,-0.978959 0.49741,-4.405313 0.49741,-4.405313 l 0.61913,-14.216062 a 2.746375,2.746375 0 0 1 0.74083,-0.211667 c 0,0 2.79929,-2.672291 2.16694,-5.519208 a 18.290646,18.290646 0 0 1 -0.20108,-2.600854 c 0.92075,-0.854604 2.1881,-2.116667 2.54793,-2.894542 0.58738,-1.267354 0,-7.408333 0,-7.408333 V 14.536248 l 4.68313,0.473604 4.24921,0.436563 1.29381,0.132292 4.24921,0.428625 9.76577,0.986895 8.80004,-1.666875 3.80735,-0.719666 7.82902,-1.481667 V -6.0298139 Z m -64.45514,-63.4761864 -0.54504,-0.05821 c 0.17991,0.0079 0.37041,0.04233 0.54504,0.05821 z"
         inkscape:connector-curvature="0"
         style="fill:url(#07c62293-c0d3-4921-8e06-4e39241449cd);stroke-width:0.26458332" />
      <path
         id="path1250"
         d="m -210.53517,5.0694568 c -2.64583,3.7861874 -12.1576,1.7806458 -12.1576,1.7806458 l -7.37129,-6.89768741 -0.99219,-0.93397916 1.66423,-3.53483333 c 0,0 0.52917,0.1455209 1.43669,0.4048125 4.76514,1.3837709 19.65325,5.9981041 17.42016,9.1810416 z"
         inkscape:connector-curvature="0"
         style="fill:#efb7b9;stroke-width:0.26458332" />
      <path
         id="path1252"
         d="m -227.96062,-4.1115848 c -0.32544,1.1324167 -1.21709,2.8283958 -2.10344,4.06399999 l -0.99219,-0.93397916 1.66423,-3.53483333 c 0,0 0.53446,0.1455209 1.4314,0.4048125 z"
         inkscape:connector-curvature="0"
         style="opacity:0.1;stroke-width:0.26458332" />
      <path
         id="path1254"
         d="m -253.24156,-43.973709 c 0,0 -6.7945,3.013604 -6.46113,10.414 a 122.00996,122.00996 0 0 0 1.55575,14.223999 c 0,0 -1.38906,11.1363128 4.39473,14.0070419 5.7838,2.8707291 11.13632,5.23081245 11.13632,5.23081245 0,0 9.04875,0.97366666 10.17323,1.37583335 1.12447,0.4021666 4.63814,-5.74675 3.98991,-6.7045416 -0.64823,-0.9577917 -8.9535,-2.9659791 -10.01183,-4.5640625 -1.05833,-1.5980836 -3.50573,-2.5849786 -3.50573,-2.5849786 0,0 -2.52677,-1.529292 -2.69875,-2.910417 -0.17198,-1.381125 0.49477,-2.410354 0.6641,-3.01625 0.16934,-0.605896 0.59796,-6.455833 0.59796,-6.455833 0,0 2.85221,-20.822708 -9.83456,-19.015604 z"
         inkscape:connector-curvature="0"
         style="fill:#dce6f2;stroke-width:0.26458332" />
      <path
         id="path1256"
         d="m -248.75687,-19.63998 c 0,0 -9.32127,1.561041 -8.41904,4.823354 0,0 3.38402,-3.521604 8.41904,-4.823354 z"
         inkscape:connector-curvature="0"
         style="opacity:0.1;stroke-width:0.26458332" />
      <path
         id="path1258"
         d="m -248.68544,-18.31971 c 0,0 -5.12497,4.183063 -4.1222,4.397375 1.00277,0.214313 4.1222,-4.397375 4.1222,-4.397375 z"
         inkscape:connector-curvature="0"
         style="opacity:0.1;stroke-width:0.26458332" />
      <path
         id="path1260"
         d="m -246.22216,-16.861855 c 0,0 -1.37319,2.81252 -0.52917,2.62202 0.84402,-0.1905 0.52917,-2.62202 0.52917,-2.62202 z"
         inkscape:connector-curvature="0"
         style="opacity:0.1;stroke-width:0.26458332" />
      <path
         id="path1262"
         d="m -227.61666,-3.8126056 -0.56621,-0.1613958 c 0.16139,-0.5291667 0.20637,-0.9577917 0.0741,-1.1562292 -0.64823,-0.9577916 -8.94821,-2.9633333 -10.0039,-4.5640624 -1.05568,-1.600729 -3.50572,-2.584979 -3.50572,-2.584979 0,0 -2.52678,-1.529292 -2.69875,-2.910417 -0.17198,-1.381125 0.49477,-2.410354 0.6641,-3.01625 0.16933,-0.605896 0.59796,-6.458479 0.59796,-6.458479 0,0 2.84427,-20.820062 -9.8425,-19.012958 0,0 -6.7945,3.01625 -6.46377,10.416646 a 121.66864,121.66864 0 0 0 1.55839,14.224 c 0,0 -1.38906,11.136312 4.39473,14.0070411 5.78379,2.8707291 11.13631,5.23081242 11.13631,5.23081242 0,0 9.04611,0.97102078 10.17323,1.37583328 0.42598,0.1534584 1.19592,-0.63764579 1.94998,-1.72508328 l 0.42863,0.39952083 7.37129,6.89504155 c 0,0 9.51177,2.0081875 12.1576,-1.7779999 2.23573,-3.1855833 -12.64973,-7.7999166 -17.42545,-9.1810416 z"
         inkscape:connector-curvature="0"
         style="opacity:0.1;stroke-width:0.26458332" />
      <path
         id="path1264"
         d="m -257.1521,-71.749667 a 2.2489583,2.2489583 0 0 0 -0.7329,0.283104 c -0.26458,0.219604 -0.26458,0.595312 -0.33073,0.923396 a 3.0374166,3.0374166 0 0 1 -0.52916,1.264708 1.9023541,1.9023541 0 0 0 0.88106,-0.145521 4.5349583,4.5349583 0 0 1 -0.26458,1.058334 0.85724999,0.85724999 0 0 0 0.79375,-0.484188 5.0958749,5.0958749 0 0 0 0.33072,-0.928687 0.76464582,0.76464582 0 0 1 0.127,-0.264584 c 0.24342,-0.288396 0.69586,-0.15875 1.07157,-0.121708 a 1.7594791,1.7594791 0 0 0 1.60866,-0.772583 c 0.39952,-0.605896 0.42334,-2.156355 -0.52916,-2.320396 -0.99484,-0.164042 -1.61396,1.2065 -2.42623,1.508125 z"
         inkscape:connector-curvature="0"
         style="fill:#965d7b;stroke-width:0.26458332" />
      <g
         transform="matrix(0.26458333,0,0,0.26458333,-333.12456,-103.07898)"
         id="g1272"
         style="opacity:0.1">
        <path
           id="path1266"
           transform="translate(-95.23,-55.03)"
           d="m 379.5,175.74 c 0.09,-0.49 0.15,-1 0.26,-1.49 v 0 c -0.95,0.83 -1,2.24 -1.25,3.49 a 11,11 0 0 1 -0.59,2.11 11.46,11.46 0 0 0 1.58,-4.11 z"
           inkscape:connector-curvature="0" />
        <path
           id="path1268"
           transform="translate(-95.23,-55.03)"
           d="m 379.82,184 a 16.63,16.63 0 0 0 1,-4 7.16,7.16 0 0 1 -3.17,0.55 11.57,11.57 0 0 1 -1.15,2 7.12,7.12 0 0 0 3.32,-0.54 16.63,16.63 0 0 1 -1,4 3.25,3.25 0 0 0 3,-1.83 7.46,7.46 0 0 0 0.6,-1.43 3,3 0 0 1 -2.6,1.25 z"
           inkscape:connector-curvature="0" />
        <path
           id="path1270"
           transform="translate(-95.23,-55.03)"
           d="m 388.6,177.2 c -1.42,-0.14 -3.14,-0.63 -4.06,0.46 a 3.09,3.09 0 0 0 -0.48,1 c -0.09,0.26 -0.17,0.53 -0.24,0.8 0.95,-0.75 2.49,-0.35 3.78,-0.22 a 6.68,6.68 0 0 0 6.08,-2.92 5.54,5.54 0 0 0 0.67,-1.57 6.66,6.66 0 0 1 -5.75,2.45 z"
           inkscape:connector-curvature="0" />
      </g>
      <polygon
         transform="matrix(0.26458333,0,0,0.26458333,-333.12456,-103.07898)"
         id="polygon1274"
         points="332.49,219.34 330.5,237.85 312.07,209 317.24,201 "
         style="fill:#dce6f2" />
      <polygon
         transform="matrix(0.26458333,0,0,0.26458333,-333.12456,-103.07898)"
         id="polygon1276"
         points="312.59,208.19 317.23,201 318.26,202.24 332.48,219.34 330.61,236.75 330.49,237.85 313.86,211.81 312.07,209 "
         style="opacity:0.1" />
      <path
         id="path1278"
         d="m -243.06039,-56.467334 c -1.36525,0.391583 -2.66965,1.735667 -3.80471,3.368146 a 28.746979,28.746979 0 0 0 -2.05317,3.529541 c -0.37306,0.746125 -0.70114,1.463146 -0.97367,2.087563 l -0.1905,0.4445 c -0.46037,1.087437 -0.71702,1.815041 -0.71702,1.815041 0,0 -10.45104,-7.858124 -8.79739,-8.387291 0.55562,-0.177271 1.28587,-1.367896 2.00819,-2.868083 l 0.0899,-0.1905 c 0.45773,-0.963084 0.90752,-2.037292 1.30705,-3.048 0.81756,-2.07698 1.42345,-3.881438 1.42345,-3.881438 0,0 15.875,5.939896 11.70782,7.130521 z"
         inkscape:connector-curvature="0"
         style="fill:#efb7b9;stroke-width:0.26458332" />
      <path
         id="path1280"
         d="m -236.80829,-64.039709 c 0,0 2.413,4.365625 5.65415,3.770312 3.24114,-0.595312 1.90764,-2.344208 1.90764,-2.344208 z"
         inkscape:connector-curvature="0"
         style="fill:#444053;stroke-width:0.26458332" />
      <path
         id="path1282"
         d="m -241.48348,87.07706 c -2.13783,0.976312 -6.97177,0 -6.97177,0 l -2.03729,-0.127 c -2.64583,-0.169333 -7.07496,-0.455083 -8.64129,-0.582083 -2.286,-0.187855 -1.72508,-1.12448 -1.72508,-1.12448 V 79.58406 l 11.09133,-2.809875 c 0,0 4.38414,1.500188 5.58535,2.809875 1.14036,1.248833 1.80711,0.288396 3.84175,0.648229 0.10054,0.01852 0.20638,0.03969 0.3175,0.06615 1.93146,0.441854 2.97921,0.616479 3.59834,2.217208 a 7.4347916,7.4347916 0 0 1 0.29898,1.031875 c 0.5715,2.577042 -3.22263,2.558521 -5.35782,3.529542 z"
         inkscape:connector-curvature="0"
         style="fill:#a36468;stroke-width:0.26458332" />
      <path
         id="path1284"
         d="m -236.42464,82.515643 a 8.2920416,8.2920416 0 0 1 -1.24884,0.640292 c -1.45521,0.664104 -2.83898,1.473729 -4.31006,2.100792 -1.47108,0.627062 -3.05594,1.074208 -4.64873,0.955145 -0.83344,-0.06085 -1.68539,-0.264583 -2.48179,-0.02646 a 5.7308749,5.7308749 0 0 0 -1.37848,0.764646 c -2.64583,-0.169333 -7.07496,-0.455083 -8.64129,-0.582083 -2.286,-0.187855 -1.72508,-1.12448 -1.72508,-1.12448 v -0.661458 c 0.082,0 0.17462,-0.02381 0.28045,-0.03175 a 4.9953333,4.9953333 0 0 1 1.61396,0.240771 c 1.14829,0.312208 2.29129,0.619125 3.43959,0.926042 a 2.7172708,2.7172708 0 0 1 1.32291,-1.688042 4.2174583,4.2174583 0 0 1 2.13254,-0.489479 c 1.78065,0.02381 3.46605,0.867833 5.24405,0.9525 a 2.88925,2.88925 0 0 0 1.45256,-0.243417 c 0.24341,-0.121708 0.45773,-0.298979 0.69585,-0.433917 a 5.0799999,5.0799999 0 0 1 1.19856,-0.404812 26.394833,26.394833 0 0 0 3.42636,-1.105958 c 0.3175,-0.124355 0.68792,-0.34925 0.64558,-0.687917 -0.0556,-0.449792 -0.762,-0.502708 -0.94721,-0.915458 a 0.52916666,0.52916666 0 0 1 0.0212,-0.468313 c 0.10054,0.01852 0.20638,0.03969 0.3175,0.06615 1.92352,0.441854 2.97127,0.616479 3.5904,2.217208 z"
         inkscape:connector-curvature="0"
         style="opacity:0.1;stroke-width:0.26458332" />
      <path
         id="path1286"
         d="m -243.74302,99.45956 c -2.51354,1.14829 -8.20208,0 -8.20208,0 l -2.39448,-0.140229 c -3.10092,-0.198438 -8.32379,-0.529167 -10.16794,-0.685271 -2.69081,-0.22225 -2.02935,-1.322917 -2.02935,-1.322917 v -6.670146 l 13.05189,-3.307291 c 0,0 5.15938,1.764771 6.57225,3.307291 1.34144,1.468438 2.11667,0.338667 4.52173,0.762 0.11906,0.02117 0.24342,0.04762 0.37306,0.07673 2.27278,0.529166 3.50573,0.727604 4.23334,2.611437 a 8.4931249,8.4931249 0 0 1 0.35189,1.214437 c 0.65617,3.032125 -3.79677,3.008313 -6.31031,4.153959 z"
         inkscape:connector-curvature="0"
         style="fill:#a36468;stroke-width:0.26458332" />
      <path
         id="path1288"
         d="m -237.78989,94.091164 a 9.8504374,9.8504374 0 0 1 -1.46844,0.754062 c -1.71186,0.780521 -3.34169,1.733021 -5.07206,2.471209 -1.73038,0.738187 -3.59569,1.262062 -5.47159,1.124479 -0.97896,-0.07144 -1.98173,-0.3175 -2.91041,-0.03175 a 6.7468749,6.7468749 0 0 0 -1.62719,0.910167 c -3.10092,-0.198438 -8.32379,-0.529167 -10.16794,-0.685271 -2.69081,-0.22225 -2.02935,-1.322917 -2.02935,-1.322917 v -0.777875 a 3.3072916,3.3072916 0 0 1 0.33073,-0.03704 5.8049583,5.8049583 0 0 1 1.8997,0.283105 l 4.04548,1.090083 a 3.2014583,3.2014583 0 0 1 1.56898,-1.987021 4.9371249,4.9371249 0 0 1 2.5109,-0.576792 c 2.0955,0.02911 4.07723,1.021292 6.17008,1.121834 a 3.4157708,3.4157708 0 0 0 1.70392,-0.283104 c 0.28839,-0.145521 0.52917,-0.354542 0.82021,-0.510646 a 5.7546874,5.7546874 0 0 1 1.41023,-0.47625 31.667979,31.667979 0 0 0 4.01108,-1.30175 c 0.37306,-0.148167 0.80962,-0.41275 0.75935,-0.809625 -0.0661,-0.529167 -0.89693,-0.592667 -1.11654,-1.0795 a 0.63764583,0.63764583 0 0 1 0.0265,-0.550333 c 0.11906,0.02117 0.24342,0.04762 0.37306,0.07673 2.27277,0.508 3.50573,0.714375 4.23334,2.598208 z"
         inkscape:connector-curvature="0"
         style="opacity:0.1;stroke-width:0.26458332" />
      <path
         id="path1290"
         d="m -249.43156,53.68929 -0.70644,16.62377 c 0,0 -1.05833,3.394604 -0.48419,4.365625 0.57415,0.971021 1.54253,1.939396 1.19063,2.513542 -0.3519,0.574146 -4.58523,6.78127 -5.95313,4.40002 -1.36789,-2.381249 -2.71727,-12.699999 -2.71727,-12.699999 l 1.26207,-12.744979 z"
         inkscape:connector-curvature="0"
         style="fill:#444053;stroke-width:0.26458332" />
      <path
         id="path1292"
         d="m -246.36769,12.271415 1.96321,2.624667 v 22.828249 c 0,0 0.57415,6.085417 0,7.342188 -0.57414,1.256771 -3.48456,3.770312 -3.48456,3.770312 l -2.4474,-12.567708 0.52917,-13.295312 z"
         inkscape:connector-curvature="0"
         style="fill:#444053;stroke-width:0.26458332" />
      <path
         id="path1294"
         d="m -249.43156,53.68929 -0.70644,16.62377 c 0,0 -1.05833,3.394604 -0.48419,4.365625 0.57415,0.971021 1.54253,1.939396 1.19063,2.513542 -0.3519,0.574146 -4.58523,6.78127 -5.95313,4.40002 -1.36789,-2.381249 -2.71727,-12.699999 -2.71727,-12.699999 l 1.26207,-12.744979 z"
         inkscape:connector-curvature="0"
         style="opacity:0.1;stroke-width:0.26458332" />
      <path
         id="path1296"
         d="m -246.36769,12.271415 1.96321,2.624667 v 22.828249 c 0,0 0.57415,6.085417 0,7.342188 -0.57414,1.256771 -3.48456,3.770312 -3.48456,3.770312 l -2.4474,-12.567708 0.52917,-13.295312 z"
         inkscape:connector-curvature="0"
         style="opacity:0.1;stroke-width:0.26458332" />
      <path
         id="path1298"
         d="M -244.40448,2.5347485 V 14.882852 l -2.20398,9.612313 c 0,0 -0.70643,23.19602 -0.0899,26.016479 0.61647,2.820458 -2.11667,5.468937 -2.11667,5.468937 0,0 -1.5875,0.177271 -1.5875,1.410229 0,1.232959 -2.64583,4.7625 -2.64583,4.7625 l 0.0873,6.879167 c 0,0 1.14829,12.87727 -0.61648,15.345833 -1.76477,2.468562 0.61648,2.823104 0.61648,2.823104 -2.20398,7.231062 -12.78731,5.55625 -13.74246,4.7625 -0.95515,-0.79375 0,-16.404166 0,-16.404166 0,0 2.36537,-23.8125 4.21746,-24.870833 1.85208,-1.058334 0.09,-2.38125 0.70644,-3.96875 0.61647,-1.5875 -0.61648,-5.908146 -0.61648,-5.908146 0,0 -0.52917,-5.117042 -1.85209,-7.585604 -1.32291,-2.468563 -1.14829,-9.260417 -1.14829,-9.260417 0,0 -3.70417,-4.939771 -4.80483,-6.879166 -1.10067,-1.939396 -1.80975,-6.966479 -1.54517,-10.7606044 0.17992,-2.5638125 1.52665,-6.29708325 2.38125,-8.4454999 0.41011,-1.0292291 0.70644,-1.6959791 0.70644,-1.6959791 l 0.25135,0.066146 14.45154,3.78354162 z"
         inkscape:connector-curvature="0"
         style="fill:#444053;stroke-width:0.26458332" />
      <path
         id="path1300"
         d="m -243.06039,-56.467334 c -1.36525,0.391583 -2.66965,1.735667 -3.80471,3.368146 h -0.29634 a 9.4509165,9.4509165 0 0 1 -8.20208,-4.743979 9.3080415,9.3080415 0 0 1 -0.83079,-1.891771 c 0.81756,-2.076979 1.42346,-3.881438 1.42346,-3.881438 0,0 15.87764,5.958417 11.71046,7.149042 z"
         inkscape:connector-curvature="0"
         style="opacity:0.1;stroke-width:0.26458332" />
      <path
         id="path1302"
         d="m -237.70258,-63.081917 a 9.458854,9.458854 0 1 1 -17.69533,-4.6355 9.2418957,9.2418957 0 0 1 1.00012,-1.444625 9.5726249,9.5726249 0 0 1 2.17488,-1.910292 9.458854,9.458854 0 0 1 14.5071,7.297208 c 0.005,0.232834 0.0132,0.463021 0.0132,0.693209 z"
         inkscape:connector-curvature="0"
         style="fill:#efb7b9;stroke-width:0.26458332" />
      <path
         id="path1304"
         d="m -245.65066,-40.438876 -0.0318,0.291042 -4.40003,-6.879167 c -0.46037,1.087438 -0.71702,1.815042 -0.71702,1.815042 0,0 -10.45104,-7.868708 -8.79739,-8.397875 0.55562,-0.177271 1.28587,-1.367896 2.00819,-2.868083 l 0.0899,-0.1905 c 0.7673,2.286 5.22552,6.855354 7.08025,8.68627 0.21432,0.211667 0.39159,0.386292 0.52917,0.513292 l 0.2831,0.264583 0.14817,0.148167 c 0.67469,0.695854 3.52161,3.765021 3.80736,6.617229 z"
         inkscape:connector-curvature="0"
         style="opacity:0.1;stroke-width:0.26458332" />
      <path
         id="path1306"
         d="m -242.36189,-17.097335 -0.48155,15.496646 -0.0847,2.7596042 c 0,0 -5.70442,-0.52916669 -11.02784,-1.11125002 -4.28625,-0.46831249 -8.32643,-0.97366665 -8.9482,-1.26999998 -0.79375,-0.3730625 -2.49502,-0.6614583 -3.83646,-0.8440208 -1.03717,-0.1402292 -1.85209,-0.2143125 -1.85209,-0.2143125 0,0 -0.30427,0.089958 -0.77258,0.174625 -1.02129,0.1852083 -2.81517,0.3360208 -3.86027,-0.5715 -1.33615,-1.1615208 2.17488,-5.3816249 3.05065,-6.3949791 l 0.19314,-0.2196042 -0.33073,-3.0559376 -0.85989,-7.924271 c 0,0 -0.52917,-4.564062 -1.32292,-7.011458 a 12.932833,12.932833 0 0 1 -0.45773,-2.129896 17.060333,17.060333 0 0 1 0.4445,-6.683375 14.57325,14.57325 0 0 0 0.47625,-2.828395 c 0.13229,-2.447396 7.60677,-11.90625 9.45886,-12.766146 a 3.9264166,3.9264166 0 0 0 1.89441,-1.889125 3.6089166,3.6089166 0 0 0 0.2884,-0.822854 c 0.79375,-3.439583 2.80194,-2.074333 2.80194,-2.074333 0.48418,2.690812 7.97983,9.813395 7.97983,9.813395 l 0.14817,0.148167 c 0.74347,0.762 4.05606,4.339167 3.82058,7.392458 a 8.9614374,8.9614374 0 0 0 0.50006,3.344333 56.554687,56.554687 0 0 1 2.60615,14.816667 z"
         inkscape:connector-curvature="0"
         style="fill:#dce6f2;stroke-width:0.26458332" />
      <path
         id="path1308"
         d="m -252.98227,-35.499105 c 0,0 -1.85208,4.497916 -3.24114,5.225521 -1.38907,0.727604 3.9026,1.534583 3.24114,-5.225521 z"
         inkscape:connector-curvature="0"
         style="opacity:0.1;stroke-width:0.26458332" />
      <path
         id="path1310"
         d="m -251.59321,-27.098584 c 0,0 -4.23333,0.529166 -4.23333,1.322916 0,0.79375 4.23333,-1.322916 4.23333,-1.322916 z"
         inkscape:connector-curvature="0"
         style="opacity:0.1;stroke-width:0.26458332" />
      <path
         id="path1312"
         d="m -247.16144,-21.93921 c 0,0 -6.15156,13.0968753 -7.87135,13.4937503 -1.71979,0.396875 7.87135,-13.4937503 7.87135,-13.4937503 z"
         inkscape:connector-curvature="0"
         style="opacity:0.1;stroke-width:0.26458332" />
      <path
         id="path1314"
         d="m -249.72525,-46.000418 -5.08794,2.211917 -6.14097,-9.276291 a 3.6089166,3.6089166 0 0 0 0.28839,-0.822855 c 0.79375,-3.439583 2.80194,-2.074333 2.80194,-2.074333 0.48419,2.690813 7.97983,9.813396 7.97983,9.813396 z"
         inkscape:connector-curvature="0"
         style="opacity:0.1;stroke-width:0.26458332" />
      <path
         id="path1316"
         d="m -249.46066,-46.529584 -5.08794,2.211916 -6.14098,-9.276291 a 3.6089166,3.6089166 0 0 0 0.28839,-0.822854 c 0.79375,-3.439584 2.80194,-2.074334 2.80194,-2.074334 0.48419,2.690813 7.97984,9.813396 7.97984,9.813396 z"
         inkscape:connector-curvature="0"
         style="fill:#dce6f2;stroke-width:0.26458332" />
      <path
         id="path1318"
         d="m -242.9281,1.1589152 c 0,0 -5.70442,-0.52916669 -11.02784,-1.11125002 l 9.55146,2.50031252 v 2.9104166 c -0.41804,0.3783541 -0.78052,0.5741458 -1.016,0.4736041 -1.10066,-0.4630208 -10.08327,-1.9182291 -10.08327,-1.9182291 0,0 -5.21758,-2.6458333 -10.84791,-5.8208333 a 4.3471041,4.3471041 0 0 1 -0.39688,-0.2487083 6.2547499,6.2547499 0 0 1 -1.66687,-1.6695208 c -1.03982,-1.5054791 -1.54782,-3.4395833 -1.76742,-5.3366458 a 23.076958,23.076958 0 0 1 -0.13758,-3.2755411 26.857854,26.857854 0 0 1 0.33866,-3.701521 121.7295,121.7295 0 0 1 -0.79375,-14.2875 c 0.0662,-7.408333 7.01146,-10.054167 7.01146,-10.054167 12.76615,-1.124479 8.80798,19.513021 8.80798,19.513021 0,0 -0.73819,5.820833 -0.93927,6.416146 -0.20108,0.595312 -0.9234,1.5875 -0.8255,2.976562 0.0979,1.389063 2.53735,3.050646 2.53735,3.050646 0,0 2.38125,1.1165416 3.36286,2.7701874 0.71437,1.2197292 5.35516,2.873375 7.97718,4.0534166 z"
         inkscape:connector-curvature="0"
         style="opacity:0.1;stroke-width:0.26458332" />
      <path
         id="path1320"
         d="m -238.65244,-68.955667 a 2.9950833,2.9950833 0 0 1 -0.26458,1.264708 7.8184374,7.8184374 0 0 1 -0.47096,0.941917 4.3391666,4.3391666 0 0 1 -1.15887,1.439333 c -0.61119,0.436563 -1.38377,0.558271 -2.11667,0.735542 -0.73289,0.17727 -1.49489,0.460375 -1.91294,1.084791 a 3.794125,3.794125 0 0 0 -0.44714,1.296459 2.7887083,2.7887083 0 0 1 -0.52917,1.254125 1.0398125,1.0398125 0 0 1 -1.23825,0.296333 1.2514792,1.2514792 0 0 1 -0.47889,-0.616479 c -0.30163,-0.679979 -0.37836,-1.434042 -0.50007,-2.166938 -0.12171,-0.732896 -0.29368,-1.486958 -0.74348,-2.076979 -0.44979,-0.590021 -1.24618,-0.978958 -1.95262,-0.748771 a 1.8811875,1.8811875 0 0 0 -1.05833,1.026584 5.8843333,5.8843333 0 0 0 -0.39953,1.4605 q -0.49212,2.693458 -1.16152,5.355166 a 0.49212499,0.49212499 0 0 1 -0.0873,0.201084 0.381,0.381 0 0 1 -0.26458,0.111125 c -0.59267,0.07937 -1.16152,-0.336021 -1.75948,-0.291042 a 1.0107083,1.0107083 0 0 0 -0.18256,0.0291 9.4535624,9.4535624 0 0 1 0.95514,-10.795 l 0.0476,-0.01323 a 2.8522083,2.8522083 0 0 0 1.05833,-0.66675 11.170708,11.170708 0 0 0 1.05833,-1.225021 l 0.21167,-0.264583 a 12.067646,12.067646 0 0 1 2.06375,-1.960563 2.1166666,2.1166666 0 0 1 0.70379,-0.381 2.0849166,2.0849166 0 0 1 0.66675,-0.02117 16.819562,16.819562 0 0 0 2.75431,0.103187 17.671521,17.671521 0 0 1 1.93411,-0.195791 c 1.67481,0.04762 3.10356,1.230312 4.16189,2.52677 0.56886,0.664105 1.07686,1.42875 1.11125,2.296584 z"
         inkscape:connector-curvature="0"
         style="opacity:0.1;stroke-width:0.26458332" />
      <path
         id="path1322"
         d="m -256.63352,-67.466063 c -0.36777,0.60325 -1.03187,1.013354 -1.28058,1.674812 -0.36513,0.960438 0.25135,2.156354 -0.31486,3.013604 -0.18785,0.288396 -0.49741,0.502709 -0.60325,0.833438 -0.17991,0.558271 0.31221,1.153583 0.18521,1.727729 -0.127,0.574146 -0.88371,1.058333 -0.68262,1.61925 a 1.0583333,1.0583333 0 0 0 0.58208,0.529167 2.2754166,2.2754166 0 0 0 1.32292,0.293687 c 0.72231,-0.119062 1.25941,-0.828146 1.99231,-0.881062 0.59531,-0.04233 1.16417,0.370416 1.75683,0.293687 a 0.396875,0.396875 0 0 0 0.26459,-0.113771 0.45772916,0.45772916 0 0 0 0.0873,-0.201083 q 0.66675,-2.659062 1.16417,-5.355167 a 5.7679166,5.7679166 0 0 1 0.39687,-1.460499 1.8970625,1.8970625 0 0 1 1.05833,-1.026584 c 0.70644,-0.227541 1.50019,0.15875 1.95263,0.748771 0.45244,0.590021 0.62442,1.344083 0.74612,2.076979 0.12171,0.732896 0.19844,1.486958 0.49742,2.166938 a 1.2647083,1.2647083 0 0 0 0.48154,0.619125 c 0.39688,0.230187 0.93134,0.04762 1.23561,-0.296334 a 2.7596041,2.7596041 0 0 0 0.52916,-1.256771 3.77825,3.77825 0 0 1 0.44715,-1.293812 c 0.41804,-0.624417 1.18269,-0.907521 1.91294,-1.084792 0.73025,-0.17727 1.50018,-0.301625 2.11666,-0.738187 a 4.3550416,4.3550416 0 0 0 1.15888,-1.436688 c 0.39158,-0.682625 0.75671,-1.423458 0.72496,-2.20927 -0.0344,-0.85725 -0.5424,-1.621896 -1.0848,-2.288646 -1.05833,-1.296459 -2.48972,-2.479146 -4.16454,-2.524125 a 16.457083,16.457083 0 0 0 -1.9341,0.195791 16.554979,16.554979 0 0 1 -2.75431,-0.105833 2.1642916,2.1642916 0 0 0 -0.66675,0.02381 1.9949583,1.9949583 0 0 0 -0.70115,0.381 12.072937,12.072937 0 0 0 -2.0664,1.957916 15.163271,15.163271 0 0 1 -1.27529,1.481667 2.8707291,2.8707291 0 0 1 -1.05833,0.669396 c -0.26458,0.07408 -0.52917,0.02117 -0.78052,0.103187 -0.78052,0.246063 -0.88371,1.264709 -1.24619,1.862667 z"
         inkscape:connector-curvature="0"
         style="fill:#965d7b;stroke-width:0.26458332" />
      <path
         id="path1324"
         d="m -231.15414,-60.272042 c -2.11667,0.388937 -3.87086,-1.322917 -4.84188,-2.57175 a 10.376958,10.376958 0 0 1 -0.81227,-1.195917 l 7.26546,1.370542 0.29369,0.05556 c 0,0 1.33614,1.748896 -1.905,2.341563 z"
         inkscape:connector-curvature="0"
         style="opacity:0.1;stroke-width:0.26458332" />
      <g
         transform="matrix(0.26458333,0,0,0.26458333,-333.12456,-103.07898)"
         id="g1332"
         style="opacity:0.1">
        <path
           id="path1326"
           transform="translate(-95.23,-55.03)"
           d="m 376.72,214.17 a 8.33,8.33 0 0 0 -0.58,-3.84 c 0,0.1 -0.09,0.2 -0.12,0.3 -0.43,1.34 0.15,2.73 0.52,4.12 a 3,3 0 0 0 0.18,-0.58 z"
           inkscape:connector-curvature="0" />
        <path
           id="path1328"
           transform="translate(-95.23,-55.03)"
           d="m 379.1,197.8 a 22.22,22.22 0 0 0 0.08,4.15 22.28,22.28 0 0 0 -0.08,-4.15 z"
           inkscape:connector-curvature="0" />
        <path
           id="path1330"
           transform="translate(-95.23,-55.03)"
           d="m 448.55,188.45 a 16.4,16.4 0 0 1 -4.38,5.44 c -2.31,1.65 -5.22,2.11 -8,2.78 -2.78,0.67 -5.65,1.74 -7.23,4.1 a 14.41,14.41 0 0 0 -1.69,4.9 10.47,10.47 0 0 1 -2,4.75 c -1.15,1.3 -3.17,2 -4.67,1.12 a 4.78,4.78 0 0 1 -1.82,-2.34 c -1.13,-2.57 -1.43,-5.41 -1.88,-8.19 -0.45,-2.78 -1.12,-5.62 -2.82,-7.85 -1.7,-2.23 -4.71,-3.7 -7.38,-2.83 a 7.14,7.14 0 0 0 -4,3.88 21.8,21.8 0 0 0 -1.5,5.52 q -1.87,10.19 -4.4,20.24 a 1.73,1.73 0 0 1 -0.33,0.76 1.5,1.5 0 0 1 -1,0.43 c -2.24,0.29 -4.39,-1.27 -6.64,-1.11 -2.77,0.2 -4.8,2.88 -7.53,3.32 a 8.45,8.45 0 0 1 -5,-1.11 5.35,5.35 0 0 1 -1.83,-1.3 2.7,2.7 0 0 0 -0.37,2.33 3.9,3.9 0 0 0 2.2,2 8.45,8.45 0 0 0 5,1.11 c 2.73,-0.44 4.76,-3.12 7.53,-3.32 2.25,-0.16 4.4,1.4 6.64,1.11 a 1.5,1.5 0 0 0 1,-0.43 1.73,1.73 0 0 0 0.33,-0.76 q 2.52,-10 4.4,-20.24 a 21.8,21.8 0 0 1 1.5,-5.52 7.14,7.14 0 0 1 4,-3.88 c 2.67,-0.87 5.67,0.6 7.38,2.83 1.71,2.23 2.36,5.08 2.82,7.85 0.46,2.77 0.75,5.62 1.88,8.19 a 4.78,4.78 0 0 0 1.82,2.34 c 1.5,0.87 3.52,0.18 4.67,-1.12 a 10.47,10.47 0 0 0 2,-4.75 14.41,14.41 0 0 1 1.69,-4.9 c 1.58,-2.36 4.47,-3.42 7.23,-4.1 2.76,-0.68 5.67,-1.13 8,-2.78 a 16.4,16.4 0 0 0 4.38,-5.44 c 1.48,-2.57 2.86,-5.37 2.74,-8.34 a 10.74,10.74 0 0 0 -0.12,-1.14 19.65,19.65 0 0 1 -2.62,6.45 z"
           inkscape:connector-curvature="0" />
      </g>
      <path
         id="path1334"
         d="m -238.90644,-67.698896 a 9.347729,9.347729 0 0 1 1.1774,3.929062 c -2.35744,-1.322917 -4.57465,-2.775479 -5.69383,-3.280833 -1.94998,-0.881063 -9.2419,-0.748771 -11.98298,-0.66675 a 9.2418957,9.2418957 0 0 1 1.00012,-1.444625 9.5726249,9.5726249 0 0 1 2.18282,-1.910292 9.4641457,9.4641457 0 0 1 13.3297,3.368146 z"
         inkscape:connector-curvature="0"
         style="opacity:0.1;stroke-width:0.26458332" />
      <path
         id="path1336"
         d="m -230.49269,-61.393876 c -1.27264,0.391584 -3.34962,-0.365125 -5.50333,-1.449916 a 10.376958,10.376958 0 0 1 -0.81227,-1.195917 l 7.26546,1.370542 c 0.48154,0.328083 0.60325,0.796395 -0.94986,1.275291 z"
         inkscape:connector-curvature="0"
         style="opacity:0.1;stroke-width:0.26458332" />
      <path
         id="path1338"
         d="m -246.59787,-76.872001 c 0,0 -6.94532,-0.396875 -8.89794,3.373438 l -0.31485,3.341687 -0.52917,-0.05821 -0.10583,2.272771 c 0,0 10.61508,-0.463021 13.03072,0.627062 2.41565,1.090084 9.92188,6.582834 12.93019,5.656792 3.00831,-0.926042 -0.26458,-1.785938 -0.26458,-1.785938 0,0 -4.14073,-1.754187 -4.14073,-3.13002 0,-1.375834 -1.02658,-8.643938 -11.70781,-10.297584 z"
         inkscape:connector-curvature="0"
         style="fill:#444053;stroke-width:0.26458332" />
      <path
         id="path1340"
         d="m -259.99373,47.005915 c 0,0 4.43177,4.299479 6.35,3.96875 0,0 -5.42396,-0.463021 -6.35,-3.96875 z"
         inkscape:connector-curvature="0"
         style="opacity:0.1;stroke-width:0.26458332" />
      <path
         id="path1342"
         d="m -260.91977,48.998227 c 0,0 0.39688,2.211917 1.45521,1.994958 1.05833,-0.216958 -1.45521,-1.994958 -1.45521,-1.994958 z"
         inkscape:connector-curvature="0"
         style="opacity:0.1;stroke-width:0.26458332" />
      <path
         id="path1344"
         d="m -253.97446,85.96581 c 0,0 -6.29179,4.894792 -5.23081,5.027083 1.06098,0.132292 5.23081,-5.027083 5.23081,-5.027083 z"
         inkscape:connector-curvature="0"
         style="opacity:0.1;stroke-width:0.26458332" />
      <polygon
         transform="matrix(0.26458333,0,0,0.26458333,-333.12456,-103.07898)"
         id="polygon1346"
         points="407.96,334.8 407.96,407.7 334.8,403.87 330.96,347.33 "
         style="fill:#38a4cd" />
      <polygon
         transform="matrix(0.26458333,0,0,0.26458333,-333.12456,-103.07898)"
         id="polygon1348"
         points="407.96,334.8 407.96,407.7 334.8,403.87 330.96,347.33 "
         style="opacity:0.05" />
      <polygon
         transform="matrix(0.26458333,0,0,0.26458333,-333.12456,-103.07898)"
         id="polygon1350"
         points="500.3,341.71 495.19,405.15 407.96,407.7 407.96,334.8 "
         style="fill:#38a4cd" />
      <polygon
         transform="matrix(0.26458333,0,0,0.26458333,-333.12456,-103.07898)"
         id="polygon1352"
         points="500.3,341.71 495.19,405.15 407.96,407.7 407.96,334.8 "
         style="opacity:0.1" />
      <polygon
         transform="matrix(0.26458333,0,0,0.26458333,-333.12456,-103.07898)"
         id="polygon1354"
         points="407.96,334.8 500.3,341.71 515.39,318.94 436.35,312.55 "
         style="fill:#38a4cd" />
      <polygon
         transform="matrix(0.26458333,0,0,0.26458333,-333.12456,-103.07898)"
         id="polygon1356"
         points="372.4,314.59 407.96,334.8 330.96,347.33 303.08,323.03 "
         style="fill:#38a4cd" />
      <polygon
         transform="matrix(0.26458333,0,0,0.26458333,-333.12456,-103.07898)"
         id="polygon1358"
         points="368.3,447.6 352.62,445.99 330.96,443.77 330.96,347.33 407.95,352.57 424.84,353.73 424.84,453.4 388.77,449.7 373.08,448.1 "
         style="fill:#38a4cd" />
      <polygon
         transform="matrix(0.26458333,0,0,0.26458333,-333.12456,-103.07898)"
         id="polygon1360"
         points="500.3,438.91 471.39,444.46 457.33,447.16 424.84,453.4 424.84,353.73 500.3,341.71 "
         style="fill:#38a4cd" />
      <polygon
         transform="matrix(0.26458333,0,0,0.26458333,-333.12456,-103.07898)"
         id="polygon1362"
         points="500.3,438.91 471.39,444.46 457.33,447.16 424.84,453.4 424.84,353.73 500.3,341.71 "
         style="opacity:0.05" />
      <polygon
         transform="matrix(0.26458333,0,0,0.26458333,-333.12456,-103.07898)"
         id="polygon1364"
         points="330.96,347.33 424.84,353.73 411.02,377.01 303.08,368.31 "
         style="fill:#38a4cd" />
      <polygon
         transform="matrix(0.26458333,0,0,0.26458333,-333.12456,-103.07898)"
         id="polygon1366"
         points="330.96,347.33 424.84,353.73 411.02,377.01 303.08,368.31 "
         style="opacity:0.1;fill:#ffffff" />
      <polygon
         transform="matrix(0.26458333,0,0,0.26458333,-333.12456,-103.07898)"
         id="polygon1368"
         points="424.84,353.73 449.4,375.73 530.23,362.17 500.3,341.71 "
         style="fill:#38a4cd" />
      <polygon
         transform="matrix(0.26458333,0,0,0.26458333,-333.12456,-103.07898)"
         id="polygon1370"
         points="424.84,353.73 449.4,375.73 530.23,362.17 500.3,341.71 "
         style="opacity:0.1;fill:#ffffff" />
      <polygon
         transform="matrix(0.26458333,0,0,0.26458333,-333.12456,-103.07898)"
         id="polygon1372"
         points="457.33,447.16 457.33,426.39 470.5,423.07 471.39,444.46 "
         style="opacity:0.1;fill:#ffffff" />
      <polygon
         transform="matrix(0.26458333,0,0,0.26458333,-333.12456,-103.07898)"
         id="polygon1374"
         points="388.77,449.7 373.08,448.1 373.08,435.96 388.77,435.96 "
         style="opacity:0.1;fill:#ffffff" />
      <polygon
         transform="matrix(0.26458333,0,0,0.26458333,-333.12456,-103.07898)"
         id="polygon1376"
         points="368.3,447.6 352.62,445.99 352.62,440.29 368.3,440.29 "
         style="opacity:0.1;fill:#ffffff" />
      <path
         id="path1378"
         d="m -223.21664,10.339957 c -2.84427,3.638021 -12.23698,1.124479 -12.23698,1.124479 l -6.97971,-7.2813334 -0.94721,-0.9868958 1.85208,-3.43958328 c 0,0 0.52917,0.174625 1.41288,0.48154166 4.67783,1.63512502 19.29341,7.04056242 16.89894,10.10179182 z"
         inkscape:connector-curvature="0"
         style="opacity:0.1;stroke-width:0.26458332" />
      <path
         id="path1380"
         d="m -223.48123,9.8107901 c -2.84427,3.6380209 -12.23698,1.1244789 -12.23698,1.1244789 l -6.9797,-7.281333 -0.94721,-0.9868958 1.85208,-3.43958334 c 0,0 0.52917,0.174625 1.41288,0.48154166 4.67783,1.63512498 19.29341,7.04056238 16.89893,10.10179158 z"
         inkscape:connector-curvature="0"
         style="fill:#efb7b9;stroke-width:0.26458332" />
      <path
         id="path1382"
         d="m -240.39075,-0.29100148 c -0.38629,1.11124999 -1.36789,2.75695828 -2.31775,3.94493748 l -0.94721,-0.9868958 1.85209,-3.43958334 c 0,0 0.53181,0.174625 1.41287,0.48154166 z"
         inkscape:connector-curvature="0"
         style="opacity:0.1;stroke-width:0.26458332" />
      <path
         id="path1384"
         d="m -263.49946,-41.439001 c 0,0 -6.94531,2.645833 -7.01145,10.054167 a 121.7295,121.7295 0 0 0 0.79375,14.287499 c 0,0 -1.98438,11.0463544 3.63802,14.2213544 5.62239,3.17499995 10.84791,5.8208332 10.84791,5.8208332 0,0 8.98261,1.4552084 10.08592,1.9182292 1.10331,0.4630208 4.93712,-5.49010411 4.34181,-6.4822916 -0.59531,-0.9921875 -8.77358,-3.4395833 -9.7446,-5.0932291 -0.97102,-1.6536458 -3.36286,-2.7675416 -3.36286,-2.7675416 0,0 -2.43945,-1.6642295 -2.53735,-3.0532915 -0.0979,-1.389063 0.62177,-2.38125 0.8255,-2.976563 0.20373,-0.595312 0.94192,-6.416145 0.94192,-6.416145 0,0 3.94758,-20.650729 -8.81857,-19.513021 z"
         inkscape:connector-curvature="0"
         style="fill:#dce6f2;stroke-width:0.26458332" />
      <path
         id="path1386"
         d="m -260.32446,-16.912126 c 0,0 -9.3927,1.058333 -8.6651,4.365625 0,0 3.56923,-3.336396 8.6651,-4.365625 z"
         inkscape:connector-curvature="0"
         style="opacity:0.1;stroke-width:0.26458332" />
      <path
         id="path1388"
         d="m -260.32446,-15.58921 c 0,0 -5.33135,3.902604 -4.35239,4.167188 0.97896,0.264583 4.35239,-4.167188 4.35239,-4.167188 z"
         inkscape:connector-curvature="0"
         style="opacity:0.1;stroke-width:0.26458332" />
      <path
         id="path1390"
         d="m -257.94321,-14.00171 c 0,0 -1.52135,2.735792 -0.66145,2.592917 0.85989,-0.142875 0.66145,-2.592917 0.66145,-2.592917 z"
         inkscape:connector-curvature="0"
         style="opacity:0.1;stroke-width:0.26458332" />
      <path
         id="path1392"
         d="m -160.14792,-73.342459 c 0,0 -10.05416,-0.605896 -8.87941,6.447896 0,0 -0.23548,1.246187 0.89429,1.812396 0,0 0.0185,-0.529167 1.03187,-0.346604 a 4.6328541,4.6328541 0 0 0 1.09273,0.05292 2.2674791,2.2674791 0 0 0 1.3388,-0.552979 v 0 c 0,0 2.82839,-1.166812 3.92906,-5.791729 0,0 0.81491,-1.010708 0.79375,-1.27 l -1.69863,0.727604 c 0,0 0.57944,1.225021 0.12171,2.243667 0,0 -0.0529,-2.198688 -0.381,-2.148417 -0.0661,0 -0.88106,0.425979 -0.88106,0.425979 0,0 0.99748,2.132542 0.24342,3.685646 0,0 0.28575,-2.629958 -0.55563,-3.532187 l -1.19592,0.6985 c 0,0 1.16682,2.203979 0.37571,4.003145 0,0 0.20373,-2.759604 -0.62706,-3.833812 l -1.08479,0.844021 c 0,0 1.09802,2.174875 0.42862,3.667125 0,0 -0.0873,-3.212042 -0.6641,-3.455459 0,0 -0.94721,0.836084 -1.09008,1.180042 0,0 0.74877,1.5875 0.2831,2.410354 0,0 -0.28575,-2.140479 -0.52917,-2.151062 0,0 -0.94456,1.418166 -1.04246,2.38125 a 5.1487916,5.1487916 0 0 1 0.81228,-2.524125 2.8336875,2.8336875 0 0 0 -1.44463,0.748771 c 0,0 0.14552,-1.002771 1.67746,-1.090084 0,0 0.79375,-1.076854 0.98954,-1.143 0,0 -1.524,-0.127 -2.4474,0.283104 0,0 0.81228,-0.944562 2.72786,-0.529166 l 1.05833,-0.873125 c 0,0 -2.00554,-0.264584 -2.8575,0.0291 0,0 0.97896,-0.836083 3.1459,-0.227542 l 1.16416,-0.695854 c 0,0 -1.7092,-0.370417 -2.72785,-0.235479 0,0 1.07421,-0.579438 3.06917,0.04762 l 0.83343,-0.373063 c 0,0 -1.25412,-0.246062 -1.61925,-0.28575 -0.36512,-0.03969 -0.38629,-0.140229 -0.38629,-0.140229 a 4.3285833,4.3285833 0 0 1 2.35215,0.264584 c 0,0 1.78594,-0.642938 1.74889,-0.754063 z"
         inkscape:connector-curvature="0"
         style="fill:#38a4cd;stroke-width:0.26458332" />
      <path
         id="path1394"
         d="m -129.59912,-38.062918 c 0,0 -10.05417,-0.605895 -8.87942,6.447896 0,0 -0.23548,1.246188 0.89429,1.812396 0,0 0.0185,-0.529167 1.03452,-0.346604 a 4.6328541,4.6328541 0 0 0 1.09273,0.05292 2.2648333,2.2648333 0 0 0 1.32292,-0.550333 v 0 c 0,0 2.83104,-1.169458 3.93171,-5.794375 0,0 0.81227,-1.008062 0.78052,-1.267354 l -1.69863,0.724958 c 0,0 0.57944,1.225021 0.12436,2.243667 0,0 -0.0556,-2.198688 -0.381,-2.148417 -0.0662,0 -0.88371,0.425979 -0.88371,0.425979 0,0 1.00012,2.135188 0.24606,3.685646 0,0 0.28575,-2.629958 -0.55827,-3.532187 l -1.18269,0.690562 c 0,0 1.16681,2.203979 0.37571,4.003146 0,0 0.20373,-2.759604 -0.62706,-3.833812 l -1.08215,0.846666 c 0,0 1.09538,2.172229 0.42863,3.664479 0,0 -0.0873,-3.212041 -0.66411,-3.455458 0,0 -0.94721,0.836083 -1.09273,1.180042 0,0 0.75142,1.5875 0.28575,2.410354 0,0 -0.28575,-2.140479 -0.52916,-2.151063 0,0 -0.94457,1.418167 -1.04246,2.38125 a 5.1646666,5.1646666 0 0 1 0.81491,-2.524125 2.8469166,2.8469166 0 0 0 -1.44727,0.748771 c 0,0 0.14817,-1.002771 1.68011,-1.090083 0,0 0.78052,-1.076854 0.98954,-1.143 0,0 -1.524,-0.127 -2.4474,0.283104 0,0 0.81227,-0.944562 2.72521,-0.515937 l 1.05834,-0.873125 c 0,0 -2.00819,-0.264584 -2.8575,0.0291 0,0 0.97895,-0.836084 3.14589,-0.227542 l 1.16417,-0.695854 c 0,0 -1.71186,-0.367771 -2.7305,-0.235479 0,0 1.07685,-0.579438 3.07181,0.04762 l 0.83344,-0.373063 c 0,0 -1.25413,-0.246062 -1.6219,-0.28575 -0.36777,-0.03969 -0.38629,-0.140229 -0.38629,-0.140229 a 4.3365208,4.3365208 0 0 1 2.35479,0.264583 c 0,0 1.78859,-0.648229 1.75684,-0.759354 z"
         inkscape:connector-curvature="0"
         style="opacity:0.1;fill:#38a4cd;stroke-width:0.26458332" />
      <path
         id="path1396"
         d="m -190.67819,-44.325605 c 0,0 2.31511,-9.813396 -4.83923,-9.847792 0,0 -1.18797,-0.4445 -1.93675,0.5715 0,0 0.51065,0.10848 0.16405,1.076855 a 4.7095833,4.7095833 0 0 0 -0.23813,1.058333 2.2727708,2.2727708 0 0 0 0.31486,1.410229 v 0 c 0,0 0.66939,2.989792 5.02708,4.863042 0,0 0.85725,0.973666 1.11654,0.98425 l -0.42333,-1.796521 c 0,0 -1.30704,0.362479 -2.23309,-0.264584 0,0 2.17752,0.320146 2.18017,0 0,-0.06614 -0.26458,-0.941916 -0.26458,-0.941916 0,0 -2.27277,0.619125 -3.67507,-0.388938 0,0 2.54265,0.73025 3.57717,0.05556 l -0.47625,-1.30175 c 0,0 -2.38125,0.775229 -4.01108,-0.312209 0,0 2.68552,0.672042 3.88673,0.03704 l -0.64823,-1.211792 c 0,0 -2.32834,0.709084 -3.68565,-0.203729 0,0 3.175,0.460375 3.51896,-0.0635 0,0 -0.66146,-1.076854 -0.97631,-1.277937 0,0 -1.68275,0.470958 -2.42359,-0.129646 0,0 2.15636,0.08202 2.20663,-0.145521 0,0 -1.2356,-1.172104 -2.17752,-1.436687 a 5.1858333,5.1858333 0 0 1 2.35214,1.232958 2.8548541,2.8548541 0 0 0 -0.49212,-1.553104 c 0,0 0.96308,0.3175 0.79375,1.852083 0,0 0.92604,0.9525 0.95515,1.169458 0,0 0.38364,-1.47902 0.13758,-2.460624 0,0 0.79375,0.963083 0.045,2.775479 l 0.67733,1.203854 c 0,0 0.61383,-1.931459 0.45773,-2.820458 0,0 0.65881,1.105958 -0.31221,3.137958 l 0.48948,1.267354 c 0,0 0.65352,-1.624542 0.69586,-2.645833 0,0 0.38893,1.158875 -0.5715,3.018895 l 0.22754,0.883709 c 0,0 0.45508,-1.193271 0.55562,-1.547813 0.10054,-0.354541 0.20373,-0.357187 0.20373,-0.357187 a 4.3338749,4.3338749 0 0 1 -0.65881,2.275416 c 0,0 0.3466,1.846792 0.46037,1.833563 z"
         inkscape:connector-curvature="0"
         style="opacity:0.1;fill:#38a4cd;stroke-width:0.26458332" />
      <path
         id="path1398"
         d="m -212.69681,-40.981272 c 0,0 -8.07508,-6.040437 -10.96169,0.502709 0,0 -0.88106,0.912812 -0.24871,2.005541 0,0 0.30163,-0.425979 1.05834,0.280458 a 4.6328541,4.6328541 0 0 0 0.8837,0.645584 2.270125,2.270125 0 0 0 1.42082,0.264583 v 0 c 0,0 3.00566,0.579438 6.46641,-2.677583 0,0 1.23561,-0.396875 1.35202,-0.629708 l -1.82297,-0.320146 c 0,0 -0.1905,1.341437 -1.12978,1.942041 0,0 1.16153,-1.867958 0.8599,-2.002895 -0.0608,-0.0291 -0.97102,-0.132292 -0.97102,-0.132292 0,0 -0.33867,2.333625 -1.82033,3.214687 0,0 1.68539,-2.039937 1.47637,-3.25702 l -1.38377,-0.07408 c 0,0 -0.23548,2.484438 -1.88648,3.553354 0,0 1.6854,-2.193395 1.5875,-3.548062 l -1.37054,0.111125 c 0,0 -0.27781,2.415646 -1.65629,3.294062 0,0 1.69069,-2.7305 1.34408,-3.249083 0,0 -1.25148,0.177271 -1.56104,0.383646 0,0 -0.24077,1.730375 -1.08744,2.169583 0,0 0.93927,-1.944687 0.74877,-2.079625 0,0 -1.56898,0.664104 -2.18546,1.420813 a 5.1673124,5.1673124 0 0 1 2.06905,-1.661584 2.8495625,2.8495625 0 0 0 -1.61925,-0.169333 c 0,0 0.67204,-0.756708 2.00025,0.01323 0,0 1.24354,-0.468312 1.4552,-0.410104 0,0 -1.20385,-0.944562 -2.20133,-1.108604 0,0 1.20121,-0.343958 2.56381,1.058333 l 1.37319,-0.140229 c 0,0 -1.52664,-1.322917 -2.40242,-1.545167 0,0 1.27794,-0.161395 2.75167,1.53723 l 1.35467,0.06085 c 0,0 -1.22502,-1.248834 -2.14842,-1.698625 0,0 1.21444,0.105833 2.53736,1.727729 l 0.90222,0.145521 c 0,0 -0.91281,-0.894292 -1.19856,-1.127125 -0.28575,-0.232834 -0.24606,-0.330729 -0.24606,-0.330729 a 4.3471041,4.3471041 0 0 1 1.82298,1.513416 c 0,0 1.83885,0.425979 1.87325,0.3175 z"
         inkscape:connector-curvature="0"
         style="opacity:0.1;fill:#38a4cd;stroke-width:0.26458332" />
      <path
         id="path1400"
         d="m -185.8125,-97.102042 c 0,0 -8.07508,-6.043088 -10.96169,0.502708 0,0 -0.88106,0.912813 -0.2487,2.005542 0,0 0.30162,-0.425979 1.05833,0.280458 a 4.7069374,4.7069374 0 0 0 0.88635,0.642938 2.2674791,2.2674791 0 0 0 1.42082,0.264583 v 0 c 0,0 3.00566,0.579438 6.46641,-2.680229 0,0 1.23561,-0.394229 1.34938,-0.629708 l -1.82298,-0.314854 c 0,0 -0.18786,1.341437 -1.12977,1.942041 0,0 1.16416,-1.867958 0.86254,-2.002896 -0.0609,-0.0291 -0.97102,-0.132291 -0.97102,-0.132291 0,0 -0.34925,2.338916 -1.83092,3.214687 0,0 1.68275,-2.039937 1.47638,-3.257021 l -1.38377,-0.07408 c 0,0 -0.23813,2.484438 -1.88648,3.550708 0,0 1.68539,-2.193395 1.5875,-3.548062 l -1.3679,0.111125 c 0,0 -0.28046,2.418292 -1.65894,3.296708 0,0 1.69334,-2.7305 1.34673,-3.249083 0,0 -1.25148,0.177271 -1.56104,0.383646 0,0 -0.24077,1.730375 -1.08744,2.169583 0,0 0.93927,-1.944687 0.74877,-2.082271 0,0 -1.56898,0.66675 -2.18545,1.423459 a 5.1434999,5.1434999 0 0 1 2.06904,-1.661584 2.8310416,2.8310416 0 0 0 -1.6219,-0.169333 c 0,0 0.67469,-0.756708 2.0029,0.01323 0,0 1.24354,-0.470958 1.45521,-0.410104 0,0 -1.20386,-0.944563 -2.20134,-1.11125 0,0 1.19856,-0.341313 2.56117,1.058333 l 1.37319,-0.140229 c 0,0 -1.524,-1.322917 -2.40242,-1.547812 0,0 1.27794,-0.15875 2.75431,1.539875 l 1.35467,0.05821 c 0,0 -1.22502,-1.248833 -2.15106,-1.695979 0,0 1.21708,0.105833 2.54,1.727729 l 0.89958,0.145521 c 0,0 -0.91546,-0.883709 -1.20121,-1.11125 -0.28575,-0.227542 -0.24606,-0.328084 -0.24606,-0.328084 a 4.3391666,4.3391666 0 0 1 1.82298,1.513417 c 0,0 1.83885,0.402167 1.88383,0.301625 z"
         inkscape:connector-curvature="0"
         style="opacity:0.1;fill:#38a4cd;stroke-width:0.26458332" />
      <path
         id="path1402"
         d="m -154.95679,-89.447646 c 0,0 -3.22792,-9.554104 -9.31598,-5.799667 0,0 -1.24354,0.264584 -1.34144,1.510771 0,0 0.48948,-0.179917 0.70644,0.8255 a 4.7624999,4.7624999 0 0 0 0.36248,1.034521 2.2912916,2.2912916 0 0 0 1.016,1.029229 v 0 c 0,0 2.14842,2.182812 6.84742,1.4605 0,0 1.24089,0.375708 1.46843,0.246062 l -1.32291,-1.299104 c 0,0 -0.91546,0.997479 -2.032,0.957792 0,0 2.01877,-0.878417 1.85208,-1.161521 -0.0344,-0.05556 -0.72496,-0.656166 -0.72496,-0.656166 0,0 -1.60337,1.727729 -3.32316,1.613958 0,0 2.54264,-0.724959 3.06122,-1.852083 l -1.09537,-0.844021 c 0,0 -1.60338,1.910291 -3.56923,1.852083 0,0 2.64583,-0.849312 3.31523,-2.024062 l -1.19063,-0.685271 c 0,0 -1.5875,1.833562 -3.2332,1.775354 0,0 2.94216,-1.288521 2.9501,-1.912938 0,0 -1.12977,-0.563562 -1.50283,-0.568854 0,0 -1.18004,1.288521 -2.11667,1.172104 0,0 1.87325,-1.071562 1.79388,-1.291166 0,0 -1.66688,-0.341313 -2.60615,-0.06615 a 5.1567291,5.1567291 0 0 1 2.64583,-0.198438 2.8548541,2.8548541 0 0 0 -1.24089,-1.058333 c 0,0 0.98425,-0.240771 1.64306,1.145646 0,0 1.29117,0.320146 1.42875,0.486833 0,0 -0.45508,-1.457854 -1.18269,-2.161646 0,0 1.18269,0.399521 1.50548,2.333625 l 1.21179,0.661459 c 0,0 -0.50006,-1.960563 -1.10331,-2.645834 0,0 1.14565,0.592667 1.39435,2.828396 l 1.0848,0.817563 c 0,0 -0.30163,-1.725084 -0.80963,-2.619375 0,0 0.94192,0.777875 1.11125,2.865437 l 0.65881,0.629708 c 0,0 -0.24341,-1.254124 -0.34396,-1.608666 -0.10054,-0.354542 -0.0185,-0.378354 -0.0185,-0.378354 a 4.3629791,4.3629791 0 0 1 0.64294,2.280708 c 0,0 1.28058,1.373187 1.37319,1.304396 z"
         inkscape:connector-curvature="0"
         style="opacity:0.1;fill:#38a4cd;stroke-width:0.26458332" />
      <path
         id="path1404"
         d="m -176.02292,-88.976688 c 0,0 -10.0277,-1.116542 -9.19956,5.998104 0,0 -0.29898,1.232959 0.79375,1.852084 0,0 0.045,-0.529167 1.05834,-0.291042 a 4.8683333,4.8683333 0 0 0 1.09008,0.108479 2.2754166,2.2754166 0 0 0 1.3626,-0.484187 v 0 c 0,0 2.88661,-1.023938 4.23334,-5.588 0,0 0.86254,-0.96573 0.84402,-1.227667 l -1.73302,0.640292 c 0,0 0.52916,1.251479 0,2.246312 0,0 0.0556,-2.198687 -0.26459,-2.164292 -0.0661,0 -0.90223,0.381 -0.90223,0.381 0,0 0.889,2.182813 0.0582,3.704167 0,0 0.41804,-2.614083 -0.37835,-3.556 l -1.23031,0.635 c 0,0 1.05833,2.262188 0.17197,4.019021 0,0 0.34396,-2.746375 -0.43127,-3.860271 l -1.12448,0.79375 c 0,0 0.98425,2.225146 0.24078,3.683 0,0 0.0767,-3.212042 -0.48684,-3.484562 0,0 -0.98954,0.79375 -1.15094,1.121833 0,0 0.6694,1.613958 0.16405,2.420937 0,0 -0.17727,-2.151062 -0.41011,-2.172229 0,0 -1.016,1.367896 -1.16416,2.333625 a 5.1514374,5.1514374 0 0 1 0.94191,-2.481791 2.8469166,2.8469166 0 0 0 -1.48166,0.674687 c 0,0 0.19579,-0.992187 1.73037,-1.002771 0,0 0.83344,-1.034521 1.05833,-1.090083 0,0 -1.51606,-0.203729 -2.46062,0.15875 0,0 0.85989,-0.904875 2.74902,-0.378354 l 1.1139,-0.817563 c 0,0 -2.01348,-0.407458 -2.86544,-0.142875 0,0 1.02129,-0.79375 3.15383,-0.06615 l 1.19856,-0.637645 c 0,0 -1.69068,-0.455084 -2.71462,-0.373063 0,0 1.10331,-0.529167 3.06387,0.203729 l 0.85196,-0.330729 c 0,0 -1.24089,-0.309562 -1.60602,-0.367771 -0.36512,-0.05821 -0.37835,-0.15875 -0.37835,-0.15875 a 4.3523958,4.3523958 0 0 1 2.33891,0.381 c 0,0 1.7833,-0.568854 1.76477,-0.679979 z"
         inkscape:connector-curvature="0"
         style="opacity:0.1;fill:#38a4cd;stroke-width:0.26458332" />
      <path
         id="path1406"
         d="m -88.287083,-11.14421 c 0,0 -10.022417,-1.116541 -9.194271,5.9901669 0,0 -0.298979,1.2329583 0.79375,1.8520833 0,0 0.04498,-0.5291666 1.058333,-0.2936875 a 4.5772916,4.5772916 0 0 0 1.090084,0.1084792 2.2568958,2.2568958 0 0 0 1.362604,-0.4841875 v 0 c 0,0 2.886604,-1.0239375 4.220104,-5.5853541 0,0 0.862541,-0.9683753 0.844021,-1.2276663 l -1.733021,0.637645 c 0,0 0.529166,1.2541255 0,2.2489588 0,0 0.05556,-2.2013338 -0.264584,-2.1642918 -0.06615,0 -0.902229,0.3783543 -0.902229,0.3783543 0,0 0.889,2.1828125 0.05821,3.7041666 0,0 0.418041,-2.6114374 -0.378355,-3.5559999 l -1.230312,0.6376458 c 0,0 1.058333,2.2621875 0.174625,4.0190208 0,0 0.341312,-2.746375 -0.433917,-3.8629166 l -1.124479,0.79375 c 0,0 0.98425,2.2251458 0.240771,3.6803541 0,0 0.07673,-3.2120417 -0.486833,-3.4819167 0,0 -0.986896,0.79375 -1.150938,1.1218334 0,0 0.672042,1.6139583 0.164042,2.4209374 0,0 -0.177271,-2.1510624 -0.410104,-2.1722291 0,0 -1.016,1.3678958 -1.164167,2.333625 a 5.1514374,5.1514374 0 0 1 0.941917,-2.4817917 2.8231041,2.8231041 0 0 0 -1.481667,0.6746875 c 0,0 0.195792,-0.9948333 1.730375,-1.0054166 0,0 0.836083,-1.0345208 1.058333,-1.0874375 0,0 -1.516062,-0.206375 -2.460625,0.1561041 0,0 0.859896,-0.9022291 2.751667,-0.3757083 l 1.11125,-0.8175625 c 0,0 -1.989667,-0.3757083 -2.854854,-0.1164166 0,0 1.021292,-0.79375 3.153833,-0.068792 l 1.198563,-0.635 c 0,0 -1.690688,-0.4550835 -2.714625,-0.3730625 0,0 1.103312,-0.529166 3.063875,0.2037292 l 0.851958,-0.3333752 c 0,0 -1.240896,-0.309562 -1.606021,-0.365125 -0.365125,-0.05556 -0.378354,-0.15875 -0.378354,-0.15875 a 4.3365208,4.3365208 0 0 1 2.338917,0.378355 c 0,0 1.788583,-0.579438 1.762125,-0.693209 z"
         inkscape:connector-curvature="0"
         style="opacity:0.1;fill:#38a4cd;stroke-width:0.26458332" />
      <path
         id="path1408"
         d="m -72.965063,-1.7832515 c 0,0 -10.022416,-1.1138958 -9.19427,5.9901666 0,0 -0.296334,1.2329583 0.79375,1.8520833 0,0 0.04498,-0.5291666 1.058333,-0.2910416 a 4.6698958,4.6698958 0 0 0 1.087437,0.1058333 2.286,2.286 0 0 0 1.357313,-0.4815417 v 0 c 0,0 2.883958,-1.0239374 4.217458,-5.58799988 0,0 0.865188,-0.96572912 0.844021,-1.22766662 l -1.733021,0.63764579 c 0,0 0.529167,1.25412499 0,2.24895831 0,0 0.05556,-2.19868747 -0.264583,-2.16429164 -0.06615,0 -0.902229,0.37835416 -0.902229,0.37835416 0,0 0.889,2.18281248 0.05821,3.70416658 0,0 0.418042,-2.61143743 -0.378354,-3.55335408 l -1.230313,0.63499999 c 0,0 1.058334,2.26218749 0.174625,4.01902079 0,0 0.341313,-2.746375 -0.433916,-3.86027079 l -1.12448,0.79374999 c 0,0 0.98425,2.2251458 0.243417,3.683 0,0 0.07408,-3.2146875 -0.489479,-3.4845625 0,0 -0.986896,0.79375 -1.150938,1.1218333 0,0 0.672042,1.6139583 0.164042,2.4209375 0,0 -0.177271,-2.1510625 -0.410104,-2.1722292 0,0 -1.016,1.3678959 -1.161521,2.333625 a 5.1646666,5.1646666 0 0 1 0.939271,-2.4817916 2.8469166,2.8469166 0 0 0 -1.481667,0.6746875 c 0,0 0.198438,-0.9948333 1.733021,-1.0027708 0,0 0.833438,-1.0345209 1.058333,-1.0900834 0,0 -1.516062,-0.2037291 -2.460624,0.15875 0,0 0.859895,-0.90487496 2.751666,-0.3783541 l 1.11125,-0.81756252 c 0,0 -1.989667,-0.37570833 -2.854854,-0.11641667 0,0 1.021292,-0.79374999 3.153833,-0.0661458 l 1.198563,-0.63764582 c 0,0 -1.690688,-0.45508333 -2.714625,-0.3730625 0,0 1.103312,-0.52916669 3.063875,0.20372917 l 0.851958,-0.33072917 c 0,0 -1.240896,-0.30956249 -1.603375,-0.36777089 -0.362479,-0.058208 -0.381,-0.15875 -0.381,-0.15875 a 4.3523958,4.3523958 0 0 1 2.338917,0.381 c 0,0 1.796521,-0.5847291 1.770062,-0.6985 z"
         inkscape:connector-curvature="0"
         style="opacity:0.1;fill:#38a4cd;stroke-width:0.26458332" />
      <path
         id="path1410"
         d="m -106.98254,-80.63173 c 0,0 -8.07508,-6.040437 -10.96169,0.502709 0,0 -0.88106,0.912812 -0.24871,2.005541 0,0 0.30163,-0.425979 1.05834,0.280459 a 4.6328541,4.6328541 0 0 0 0.8837,0.645583 2.2727708,2.2727708 0 0 0 1.42082,0.264583 v 0 c 0,0 3.00566,0.579438 6.46906,-2.677583 0,0 1.23296,-0.396875 1.34937,-0.629708 l -1.81768,-0.328084 c 0,0 -0.1905,1.341438 -1.12977,1.942042 0,0 1.16152,-1.867958 0.85989,-2.002896 -0.0609,-0.0291 -0.96837,-0.132291 -0.96837,-0.132291 0,0 -0.34132,2.333625 -1.82298,3.214687 0,0 1.68539,-2.039937 1.47637,-3.257021 l -1.38377,-0.07408 c 0,0 -0.23548,2.484437 -1.88648,3.553354 0,0 1.68804,-2.193396 1.5875,-3.548062 l -1.37054,0.111125 c 0,0 -0.26458,2.415645 -1.65629,3.294062 0,0 1.69333,-2.7305 1.34408,-3.249083 0,0 -1.25148,0.177271 -1.56104,0.383646 0,0 -0.23812,1.730375 -1.08479,2.169583 0,0 0.93662,-1.944688 0.74612,-2.079625 0,0 -1.56897,0.664104 -2.18545,1.420812 a 5.1673124,5.1673124 0 0 1 2.06904,-1.661583 2.8495625,2.8495625 0 0 0 -1.61925,-0.169333 c 0,0 0.67469,-0.756709 2.00289,0.01323 0,0 1.2409,-0.468313 1.45257,-0.410104 0,0 -1.20386,-0.944563 -2.20134,-1.108604 0,0 1.20121,-0.343959 2.56382,1.058333 l 1.37318,-0.140229 c 0,0 -1.524,-1.322917 -2.40241,-1.545167 0,0 1.27793,-0.161396 2.75166,1.537229 l 1.35732,0.06085 c 0,0 -1.22767,-1.248833 -2.15107,-1.698625 0,0 1.21709,0.105834 2.53736,1.72773 l 0.90223,0.14552 c 0,0 -0.91282,-0.894291 -1.19857,-1.127125 -0.28575,-0.232833 -0.24341,-0.309562 -0.24341,-0.309562 a 4.3497499,4.3497499 0 0 1 1.82033,1.513417 c 0,0 1.83356,0.41275 1.86796,0.30427 z"
         inkscape:connector-curvature="0"
         style="opacity:0.1;fill:#38a4cd;stroke-width:0.26458332" />
      <path
         id="path1412"
         d="m -100.74367,-37.023105 c 0,0 -2.78341,-9.691688 -9.04345,-6.212417 0,0 -1.25413,0.193146 -1.41023,1.447271 0,0 0.49741,-0.156104 0.66939,0.85725 a 4.6910624,4.6910624 0 0 0 0.3175,1.058333 2.2727708,2.2727708 0 0 0 0.96838,1.0795 v 0 c 0,0 2.04787,2.275417 6.77333,1.767417 0,0 1.22238,0.428625 1.45521,0.312208 l -1.25148,-1.359958 c 0,0 -0.96044,0.957792 -2.07169,0.867833 0,0 2.05317,-0.79375 1.89442,-1.076854 -0.0318,-0.05821 -0.69321,-0.690562 -0.69321,-0.690562 0,0 -1.67746,1.656291 -3.39196,1.463145 0,0 2.5744,-0.608541 3.14061,-1.703916 l -1.05834,-0.894292 c 0,0 -1.68804,1.836209 -3.6486,1.693334 0,0 2.667,-0.732896 3.40254,-1.87325 l -1.15887,-0.738188 c 0,0 -1.68011,1.759479 -3.30994,1.627188 0,0 2.99773,-1.15623 3.03477,-1.778 0,0 -1.10596,-0.613834 -1.47902,-0.635 0,0 -1.23561,1.232958 -2.17488,1.074208 0,0 1.92088,-0.986896 1.85209,-1.209146 0,0 -1.651,-0.415396 -2.60086,-0.185208 a 5.1620208,5.1620208 0 0 1 2.64584,-0.07673 2.8389791,2.8389791 0 0 0 -1.19063,-1.11125 c 0,0 0.99483,-0.198438 1.5875,1.217083 0,0 1.27265,0.375708 1.40494,0.550333 0,0 -0.38894,-1.479021 -1.08479,-2.211916 0,0 1.16416,0.449791 1.39964,2.397125 l 1.18004,0.71702 c 0,0 -0.41275,-1.984375 -0.98425,-2.682875 0,0 1.11655,0.642938 1.26736,2.886605 l 1.05833,0.865187 c 0,0 -0.22489,-1.735667 -0.69056,-2.645833 0,0 0.90752,0.820208 0.9816,2.910416 l 0.62971,0.661459 c 0,0 -0.18521,-1.264709 -0.26458,-1.624542 -0.0794,-0.359833 0,-0.410104 0,-0.410104 a 4.3365208,4.3365208 0 0 1 0.54239,2.307167 c 0,0 1.2065,1.423458 1.30175,1.359959 z"
         inkscape:connector-curvature="0"
         style="opacity:0.1;fill:#38a4cd;stroke-width:0.26458332" />
      <path
         id="path1414"
         d="m -162.76729,-15.184397 c 0,0 -5.40544,-8.514292 -10.42458,-3.418417 0,0 -1.1483,0.529167 -0.94721,1.785938 0,0 0.43656,-0.291042 0.88635,0.635 a 4.5296666,4.5296666 0 0 0 0.59796,0.915458 2.2595416,2.2595416 0 0 0 1.23031,0.762 v 0 c 0,0 2.60615,1.608667 6.99823,-0.211667 0,0 1.29381,0.06879 1.48431,-0.108479 l -1.5875,-0.9525 c 0,0 -0.65352,1.190625 -1.74625,1.415521 0,0 1.75155,-1.322917 1.51607,-1.566333 -0.045,-0.04763 -0.8599,-0.465667 -0.8599,-0.465667 0,0 -1.14564,2.058458 -2.84427,2.357438 0,0 2.29923,-1.309688 2.53735,-2.52148 l -1.26735,-0.55827 c 0,0 -1.10331,2.235729 -3.02419,2.645833 0,0 2.35479,-1.452563 2.73844,-2.754313 l -1.32292,-0.381 c 0,0 -1.11654,2.161646 -2.71727,2.492375 0,0 2.55059,-1.952625 2.41036,-2.561166 0,0 -1.23296,-0.277813 -1.5875,-0.193146 0,0 -0.83873,1.531937 -1.78594,1.643062 0,0 1.56633,-1.486958 1.43669,-1.68275 0,0 -1.70127,0.06615 -2.54794,0.555625 a 5.1487916,5.1487916 0 0 1 2.52412,-0.820208 2.8389791,2.8389791 0 0 0 -1.45256,-0.732896 c 0,0 0.89694,-0.468312 1.85209,0.722313 0,0 1.32291,0 1.50547,0.132291 0,0 -0.79375,-1.322916 -1.66422,-1.817687 0,0 1.24354,0.105833 2.01612,1.907646 l 1.33615,0.354541 c 0,0 -0.95515,-1.785937 -1.69863,-2.296583 0,0 1.25148,0.301625 2.02671,2.415646 l 1.24883,0.529167 c 0,0 -0.70379,-1.60073 -1.41023,-2.3495 0,0 1.10067,0.529166 1.75948,2.516187 l 0.79375,0.457729 c 0,0 -0.52916,-1.161521 -0.71702,-1.481666 -0.18785,-0.320146 -0.11377,-0.39423 -0.11377,-0.39423 a 4.3391666,4.3391666 0 0 1 1.16681,2.061105 c 0,0 1.58221,1.053041 1.65365,0.963083 z"
         inkscape:connector-curvature="0"
         style="opacity:0.1;fill:#38a4cd;stroke-width:0.26458332" />
      <path
         id="path1416"
         d="m -127.24169,-58.687188 c 0,0 -5.14085,-8.675688 -10.31875,-3.738563 0,0 -1.16416,0.502709 -1.00012,1.756834 0,0 0.44185,-0.280459 0.86519,0.658812 a 4.5719999,4.5719999 0 0 0 0.56885,0.936625 2.2463125,2.2463125 0 0 0 1.2065,0.79375 v 0 c 0,0 2.55323,1.688042 7.00087,0 0,0 1.29117,0.108479 1.48696,-0.0635 l -1.5531,-1.000125 c 0,0 -0.68792,1.166813 -1.78858,1.359958 0,0 1.79122,-1.277937 1.56633,-1.518708 -0.0476,-0.05027 -0.84667,-0.494771 -0.84667,-0.494771 0,0 -1.20914,2.024063 -2.91041,2.270125 0,0 2.33891,-1.23825 2.61143,-2.439458 l -1.24883,-0.587375 c 0,0 -1.1721,2.203979 -3.10621,2.555875 0,0 2.39977,-1.378479 2.82311,-2.667 l -1.30705,-0.423333 c 0,0 -1.18533,2.116666 -2.794,2.407708 0,0 2.6088,-1.87325 2.48709,-2.484438 0,0 -1.22238,-0.3175 -1.5875,-0.243416 0,0 -0.88636,1.505479 -1.83621,1.5875 0,0 1.61131,-1.434042 1.4896,-1.635125 0,0 -1.70391,0.01323 -2.56381,0.47625 a 5.1646666,5.1646666 0 0 1 2.54794,-0.740834 2.8442708,2.8442708 0 0 0 -1.4314,-0.777875 c 0,0 0.91281,-0.441854 1.85209,0.777875 0,0 1.32291,0.04498 1.50018,0.179917 0,0 -0.74877,-1.322917 -1.60602,-1.867958 0,0 1.23825,0.142875 1.95527,1.9685 l 1.32292,0.396875 c 0,0 -0.89694,-1.815042 -1.62719,-2.3495 0,0 1.24354,0.341312 1.95263,2.4765 l 1.23031,0.574146 c 0,0 -0.65352,-1.621896 -1.32292,-2.38125 0,0 1.08215,0.563562 1.68275,2.569104 l 0.77523,0.481541 c 0,0 -0.49741,-1.177395 -0.67204,-1.502833 -0.17462,-0.325437 -0.10054,-0.396875 -0.10054,-0.396875 a 4.3471041,4.3471041 0 0 1 1.10331,2.0955 c 0,0 1.51606,1.076854 1.59279,0.989542 z"
         inkscape:connector-curvature="0"
         style="fill:#38a4cd;stroke-width:0.26458332" />
      <path
         id="path1418"
         d="m -159.76692,-40.444168 c 0,0 0.26459,-10.080625 -6.73893,-8.659812 0,0 -1.25413,-0.193146 -1.78329,0.955146 0,0 0.52916,0 0.381,1.018646 a 4.6460833,4.6460833 0 0 0 -0.0159,1.095375 2.2621875,2.2621875 0 0 0 0.59531,1.322916 v 0 c 0,0 1.26207,2.788709 5.92138,3.735917 0,0 1.03452,0.780521 1.29381,0.738187 l -0.79375,-1.672166 c 0,0 -1.20385,0.619125 -2.23837,0.198437 0,0 2.19604,-0.129646 2.13518,-0.452437 0,-0.06615 -0.45508,-0.870479 -0.45508,-0.870479 0,0 -2.10079,1.071562 -3.67506,0.36777 0,0 2.64583,0.198438 3.51102,-0.672041 l -0.73819,-1.172104 c 0,0 -2.16429,1.23825 -3.98992,0.508 0,0 2.7649,0.111125 3.81265,-0.754063 l -0.88106,-1.058333 c 0,0 -2.13519,1.169458 -3.64861,0.550333 0,0 3.20675,-0.193146 3.43959,-0.777875 0,0 -0.86784,-0.918104 -1.21709,-1.058333 0,0 -1.55046,0.79375 -2.39712,0.365125 0,0 2.11666,-0.354542 2.12989,-0.590021 0,0 -1.44727,-0.896938 -2.42358,-0.963083 a 5.1514374,5.1514374 0 0 1 2.55323,0.73025 2.8442708,2.8442708 0 0 0 -0.79375,-1.420813 c 0,0 1.00806,0.113771 1.14565,1.640417 0,0 1.10331,0.746125 1.17475,0.9525 0,0 0.0767,-1.526646 -0.36513,-2.436813 0,0 0.97367,0.780521 0.60854,2.706688 l 0.90752,1.042458 c 0,0 0.20638,-2.016125 -0.12435,-2.854854 0,0 0.86783,0.949854 0.33337,3.135312 l 0.7329,1.140355 c 0,0 0.31221,-1.722438 0.14552,-2.735792 0,0 0.61383,1.058333 0.0529,3.071812 l 0.40216,0.820209 c 0,0 0.20373,-1.262063 0.23019,-1.629834 0.0265,-0.36777 0.127,-0.391583 0.127,-0.391583 a 4.3444583,4.3444583 0 0 1 -0.18256,2.362729 c 0,0 0.71173,1.74625 0.82814,1.711854 z"
         inkscape:connector-curvature="0"
         style="fill:#38a4cd;stroke-width:0.26458332" />
      <ellipse
         id="ellipse1420"
         ry="1.2038542"
         rx="7.1252294"
         cy="86.442055"
         cx="-148.18875"
         style="opacity:0.1;fill:#38a4cd;stroke-width:0.26458332" />
      <ellipse
         id="ellipse1422"
         ry="1.2038542"
         rx="7.1252294"
         cy="104.71947"
         cx="-174.1629"
         style="opacity:0.1;fill:#38a4cd;stroke-width:0.26458332" />
      <ellipse
         id="ellipse1424"
         ry="1.2038542"
         rx="7.1252294"
         cy="95.355865"
         cx="-308.48126"
         style="opacity:0.1;fill:#38a4cd;stroke-width:0.26458332" />
      <ellipse
         id="ellipse1426"
         ry="1.2038542"
         rx="7.1252294"
         cy="103.51562"
         cx="-120.1191"
         style="opacity:0.1;fill:#38a4cd;stroke-width:0.26458332" />
      <ellipse
         id="ellipse1428"
         ry="1.7991667"
         rx="10.638895"
         cy="88.241219"
         cx="-112.7002"
         style="fill:#38a4cd;stroke-width:0.26458332" />
      <path
         id="path1430"
         d="m -108.28958,85.296414 a 3.0718125,3.0718125 0 0 0 1.01335,-1.529292 c 0.13229,-0.608541 -0.127,-1.336145 -0.70644,-1.558395 -0.65087,-0.248709 -1.34673,0.201083 -1.87589,0.656166 -0.52917,0.455084 -1.12977,0.976313 -1.82034,0.881063 a 2.778125,2.778125 0 0 0 0.85725,-2.595563 1.0874375,1.0874375 0 0 0 -0.23812,-0.529166 c -0.36248,-0.386292 -1.016,-0.219604 -1.44992,0.08467 -1.37583,0.968375 -1.75948,2.836334 -1.76741,4.519084 -0.13759,-0.605896 -0.0212,-1.23825 -0.0238,-1.852084 -0.003,-0.613833 -0.17462,-1.322916 -0.70114,-1.645708 a 2.0928541,2.0928541 0 0 0 -1.05834,-0.264583 c -0.61912,-0.02117 -1.30968,0.03969 -1.73037,0.492125 -0.52917,0.560916 -0.38894,1.505479 0.0661,2.116666 0.45508,0.611188 1.15093,1.005417 1.79122,1.434042 a 4.0031458,4.0031458 0 0 1 1.28059,1.219729 1.2435417,1.2435417 0 0 1 0.0926,0.216958 h 3.87879 a 10.69975,10.69975 0 0 0 2.39184,-1.645708 z"
         inkscape:connector-curvature="0"
         style="fill:#38a4cd;stroke-width:0.26458332" />
      <path
         id="path1432"
         d="m -313.26493,89.759935 c 0,0 4.06135,-0.124354 5.29166,-0.997479 1.23031,-0.873125 6.25211,-1.912938 6.55638,-0.513292 0.30427,1.399646 6.10658,6.955896 1.51871,6.992937 -4.58788,0.03704 -10.66007,-0.714375 -11.88244,-1.460499 -1.22238,-0.746125 -1.48431,-4.021667 -1.48431,-4.021667 z"
         inkscape:connector-curvature="0"
         style="fill:#a8a8a8;stroke-width:0.26458332" />
      <path
         id="path1434"
         d="m -299.82146,94.755268 c -4.58787,0.03704 -10.66006,-0.714375 -11.88243,-1.4605 -0.93134,-0.566208 -1.30175,-2.600854 -1.42611,-3.540125 h -0.13493 c 0,0 0.26458,3.278188 1.47902,4.021667 1.21443,0.743479 7.29456,1.497541 11.88243,1.4605 1.32292,0 1.78065,-0.481542 1.75684,-1.180042 -0.18521,0.425979 -0.69057,0.690563 -1.67482,0.6985 z"
         inkscape:connector-curvature="0"
         style="opacity:0.2;stroke-width:0.26458332" />
    </g>
  </g>
</svg>
